<?xml version="1.0" encoding="utf-8"?>
<svg viewBox="31.353 22.738 59.76 26.73" xmlns="http://www.w3.org/2000/svg">
  <path d="M 47.622 24.982 L 47.622 28.315 Q 46.764 27.589 45.889 27.028 Q 45.015 26.467 44.157 26.104 Q 42.177 25.18 40.131 25.18 Q 37.557 25.18 35.874 26.467 Q 34.158 27.787 34.158 29.602 Q 34.158 32.242 38.052 33.562 Q 39.867 34.189 41.665 34.767 Q 43.464 35.344 45.312 35.938 Q 49.239 37.819 49.239 41.548 Q 49.239 45.178 46.434 47.389 Q 43.761 49.468 39.801 49.468 Q 37.161 49.468 34.719 48.445 Q 33.3 47.884 31.353 46.597 L 31.353 43.231 Q 33.894 45.508 36.501 46.432 Q 37.359 46.762 38.184 46.894 Q 39.009 47.026 39.834 47.026 Q 42.474 47.026 44.289 45.706 Q 46.302 44.254 46.302 41.911 Q 46.302 39.073 42.474 37.588 Q 40.626 37.027 38.844 36.433 Q 37.062 35.839 35.28 35.278 Q 31.419 33.496 31.419 29.8 Q 31.419 26.698 33.861 24.751 Q 36.369 22.738 40.131 22.738 Q 42.441 22.738 44.751 23.596 Q 45.939 23.992 47.622 24.982 Z M 72.038 25.213 L 72.038 28.546 Q 70.817 27.358 69.233 26.5 Q 66.758 25.18 64.25 25.18 Q 60.389 25.18 57.617 28.447 Q 56.231 30.064 55.555 31.978 Q 54.878 33.892 54.878 36.07 Q 54.878 40.525 57.65 43.726 Q 60.389 46.927 64.316 46.927 Q 66.164 46.927 68.095 46.185 Q 70.025 45.442 72.038 43.891 L 72.038 47.092 Q 67.616 49.468 64.019 49.468 Q 59.366 49.468 55.868 45.871 Q 52.106 42.01 52.106 36.202 Q 52.106 30.559 55.604 26.665 Q 59.168 22.738 64.415 22.738 Q 66.461 22.738 68.342 23.365 Q 70.223 23.992 72.038 25.213 Z M 74.91 23.134 L 91.014 23.134 L 91.014 25.411 L 77.517 25.411 L 77.517 34.354 L 90.519 34.354 L 90.519 36.631 L 77.517 36.631 L 77.517 46.762 L 91.113 46.762 L 91.113 49.039 L 74.91 49.039 Z" style="white-space: pre; fill: rgb(125, 125, 125); stroke: rgb(125, 125, 125);"/>
</svg>